<svg xmlns="http://www.w3.org/2000/svg" viewBox="121.5 244.6 110.0 167.2" fill="none" role="img" aria-label="Flameback">
  <path transform="matrix(.33995817,0,0,.33995817,76.5,225.75)" d="M220.2 523.6C220.2 425.09999 220.2 329.59999 220.2 233.99997 233 234.79998 234.4 236.29998 234.4 248.19997 234.4 324.19996 234.4 400.09999 234.29999 476.09999 234.29999 481.99998 233.99999 487.89997 233.79999 493.8 233.4 505.9 234.29999 507 245.9 505.19999 298 496.8 335.4 468.8 355.5 419.89997 379.9 360.39997 358.1 293.09999 304.3 257.49998 283.4 243.69997 261.5 231.39997 241.59999 216.39997 212.09999 194.09996 196.29999 163.09996 190.59999 126.59996 189.99999 122.59996 187.79999 119.09996 184.7 116.59996 172.4 107.09996 163 95.59996 155.8 80.29996 159.5 80.09996 224 78.999958 253.4 79.899959 286.3 80.79996 312.8 94.499958 332 121.899959 334.7 125.79996 339.6 129.09996 344.1 130.69995 361.30003 136.79996 378.80003 141.89995 396 147.89995 411.5 153.29994 423.4 163.29994 432.5 179.09995 423.2 176.29994 415.5 173.29994 407.5 171.59995 383.8 166.39995 360 167.09995 336.6 172.89995 321.1 176.79994 310.80003 187.69995 305.9 203.19995 304.9 206.19995 304.19999 209.29996 303.4 212.39995 289.5 207.39995 288.4 205.59995 293.9 192.89995 304.3 168.59995 324.1 157.89995 349.4 155.69995 352.69999 155.39995 358.9 154.69995 366 154.19995 341.9 144.49996 310.1 137.59995 284.6 135.29996 259.2 132.99996 233.70001 131.49996 207 129.49996 207.4 132.49996 207.4 135.59996 208.1 138.39995 217.1 172.49994 237.3 198.19995 267.2 216.59995 283 226.29994 299.1 235.59995 314.2 246.39995 367.2 284.49995 389.2 336.69996 376.5 400.49995 364.4 461.29994 325.7 499.99995 265.7 516.19998 251.4 519.8 236.4 520.9 220.2 523.6Z" fill="currentColor"/>
  <path transform="matrix(.33995817,0,0,.33995817,76.5,225.75)" d="M183.4 93.4C183 94.200008 200.7 110.5 205.79999 111.8 216.79999 114.600009 305 122.600009 311.09999 123.4 310.89997 121.3 291.3 96.9 251.89998 95.3 231.2 94.8 195.8 93.4 183.4 93.4Z" fill="#FF6D0A"/>
</svg>
